<svg width="25" height="25" viewBox="0 0 230 330" fill="none" xmlns="http://www.w3.org/2000/svg">
<path d="M115 330C178.411 330 230 278.411 230 215C230 185.229 218.627 158.064 200 137.621V85C200 38.131 161.869 0 115 0C68.131 0 30.001 38.131 30.001 85V137.619C11.373 158.064 0 185.229 0 215C0 278.411 51.589 330 115 330ZM130 219.986V240C130 248.284 123.284 255 115 255C106.716 255 100 248.284 100 240V219.986C93.932 215.421 90 208.162 90 200C90 186.215 101.215 175 115 175C128.785 175 140 186.215 140 200C140 208.162 136.068 215.421 130 219.986ZM60.001 85C60.001 54.673 84.674 30 115 30C145.327 30 170 54.673 170 85V114.029C153.652 105.088 134.91 100 115 100C95.091 100 76.349 105.088 60.001 114.028V85Z" fill="#7D7C7C"/>
</svg>
